#define q2icon_width 32
#define q2icon_height 32
static unsigned char q2icon_bits[] = {
   0x00, 0x00, 0x00, 0x00, 0x00, 0x00, 0x00, 0x00, 0x00, 0x00, 0x30, 0x00,
   0x00, 0x00, 0x38, 0x00, 0x00, 0x60, 0x18, 0x00, 0x00, 0x60, 0x18, 0x00,
   0x00, 0x60, 0x0c, 0x00, 0xe0, 0x40, 0x84, 0x01, 0xf0, 0x01, 0xc0, 0x03,
   0xf0, 0x01, 0xe0, 0x03, 0xf0, 0x47, 0xf0, 0x01, 0xe0, 0x47, 0xf8, 0x00,
   0x00, 0xff, 0x1e, 0x00, 0x00, 0xe0, 0x07, 0x00, 0x00, 0xf0, 0x07, 0x00,
   0x00, 0xf0, 0x07, 0x00, 0x00, 0xf0, 0x03, 0x00, 0x00, 0xfc, 0x0f, 0x00,
   0x00, 0xdf, 0x7b, 0x00, 0xe0, 0x87, 0xf1, 0x03, 0xf0, 0x87, 0xe1, 0x07,
   0xf0, 0x00, 0x81, 0x07, 0xf0, 0x00, 0x81, 0x07, 0x60, 0x00, 0x03, 0x00,
   0x00, 0x08, 0x07, 0x00, 0x00, 0x0c, 0x07, 0x00, 0x00, 0x8c, 0x07, 0x00,
   0x00, 0x86, 0x07, 0x00, 0x00, 0x86, 0x07, 0x00, 0x00, 0x80, 0x07, 0x00,
   0x00, 0x00, 0x03, 0x00, 0x00, 0x00, 0x00, 0x00 };
